<?xml version="1.0" encoding="utf-8"?>
<!-- Generator: Adobe Illustrator 16.0.0, SVG Export Plug-In . SVG Version: 6.00 Build 0)  -->
<!DOCTYPE svg PUBLIC "-//W3C//DTD SVG 1.1//EN" "http://www.w3.org/Graphics/SVG/1.1/DTD/svg11.dtd">
<svg version="1.1" id="Layer_1" xmlns="http://www.w3.org/2000/svg" xmlns:xlink="http://www.w3.org/1999/xlink" x="0px" y="0px"
	 width="100.014px" height="37.86px" viewBox="0 0 100.014 37.86" enable-background="new 0 0 100.014 37.86" xml:space="preserve">
<g>
	<defs>
		<rect id="SVGID_1_" x="0.014" y="-36.422" width="100" height="100"/>
	</defs>
	<clipPath id="SVGID_2_">
		<use xlink:href="#SVGID_1_"  overflow="visible"/>
	</clipPath>
	<g clip-path="url(#SVGID_2_)">
		<defs>
			<rect id="SVGID_3_" x="0.014" y="-36.422" width="100" height="100"/>
		</defs>
		<clipPath id="SVGID_4_">
			<use xlink:href="#SVGID_3_"  overflow="visible"/>
		</clipPath>
		<path clip-path="url(#SVGID_4_)" fill="#2BB673" d="M10.395,12.604c0.121-0.259,0.248-0.514,0.382-0.765
			c0.134-0.25,0.274-0.5,0.422-0.751l6.182-10.369c0.112-0.121,0.214-0.22,0.305-0.298c0.09-0.078,0.185-0.138,0.285-0.182
			c0.099-0.043,0.205-0.071,0.317-0.084c0.112-0.013,0.251-0.019,0.415-0.019h2.864l-2.32,18.806h-3.292L17.368,7.29
			c0.034-0.224,0.076-0.473,0.123-0.745c0.047-0.272,0.106-0.551,0.175-0.836l-6.091,10.252c-0.165,0.26-0.368,0.456-0.61,0.59
			c-0.242,0.133-0.51,0.2-0.803,0.2H9.643c-0.285,0-0.535-0.067-0.752-0.2c-0.216-0.134-0.371-0.33-0.466-0.59L4.796,5.669
			C4.787,5.947,4.777,6.219,4.763,6.486C4.75,6.754,4.731,7,4.705,7.225L3.318,18.941H0L2.32,0.136h2.839
			c0.164,0,0.3,0.006,0.408,0.019c0.108,0.013,0.205,0.041,0.292,0.084c0.086,0.044,0.166,0.104,0.24,0.182
			c0.073,0.078,0.153,0.177,0.239,0.298l3.629,10.369C10.131,11.58,10.274,12.085,10.395,12.604"/>
		<path clip-path="url(#SVGID_4_)" fill="#2BB673" d="M27.439,18.934c-0.743,0-1.434-0.123-2.074-0.369
			c-0.639-0.246-1.192-0.606-1.658-1.082c-0.467-0.476-0.832-1.063-1.096-1.763c-0.263-0.699-0.395-1.5-0.395-2.397
			c0-1.167,0.19-2.249,0.57-3.247s0.895-1.86,1.542-2.586c0.649-0.725,1.404-1.293,2.269-1.704c0.864-0.41,1.775-0.616,2.735-0.616
			c0.742,0,1.432,0.124,2.067,0.37c0.635,0.246,1.186,0.609,1.652,1.088c0.467,0.48,0.834,1.07,1.102,1.77
			c0.268,0.699,0.402,1.499,0.402,2.398c0,1.158-0.19,2.233-0.57,3.228c-0.381,0.993-0.897,1.853-1.549,2.578
			c-0.653,0.727-1.409,1.297-2.269,1.712C29.308,18.726,28.398,18.934,27.439,18.934 M27.75,16.251c0.501,0,0.951-0.146,1.348-0.441
			c0.398-0.293,0.734-0.688,1.011-1.185c0.277-0.498,0.49-1.073,0.642-1.731c0.151-0.656,0.226-1.352,0.226-2.086
			c0-1.037-0.16-1.787-0.479-2.249c-0.32-0.462-0.817-0.693-1.491-0.693c-0.492,0-0.939,0.144-1.341,0.434
			c-0.402,0.289-0.741,0.68-1.018,1.173c-0.276,0.492-0.49,1.069-0.641,1.73c-0.152,0.661-0.227,1.359-0.227,2.093
			c0,1.02,0.16,1.768,0.48,2.242C26.579,16.013,27.076,16.251,27.75,16.251"/>
		<path clip-path="url(#SVGID_4_)" fill="#2BB673" d="M35.76,18.941l1.607-13.375h1.827c0.372,0,0.662,0.091,0.869,0.272
			c0.207,0.182,0.311,0.471,0.311,0.869L40.335,8.12C41,7.186,41.728,6.495,42.519,6.046c0.791-0.449,1.613-0.674,2.469-0.674
			c0.553,0,1.054,0.112,1.503,0.337c0.45,0.225,0.823,0.553,1.121,0.985c0.299,0.432,0.508,0.963,0.629,1.594
			c0.121,0.631,0.13,1.352,0.026,2.165l-1.011,8.489h-3.564l0.998-8.489c0.104-0.804,0.065-1.372-0.117-1.705
			c-0.181-0.332-0.501-0.499-0.959-0.499c-0.328,0-0.665,0.097-1.011,0.292c-0.345,0.194-0.678,0.468-0.998,0.823
			c-0.32,0.354-0.613,0.782-0.881,1.283c-0.268,0.501-0.484,1.059-0.648,1.672l-0.739,6.623H35.76z"/>
		<path clip-path="url(#SVGID_4_)" fill="#2BB673" d="M61.46,8.575c0,0.596-0.121,1.145-0.362,1.646
			c-0.242,0.501-0.665,0.951-1.271,1.348c-0.604,0.398-1.427,0.737-2.463,1.017c-1.036,0.282-2.346,0.5-3.928,0.655v0.026
			c0,1.979,0.834,2.968,2.503,2.968c0.553,0,1.006-0.071,1.354-0.214c0.351-0.144,0.649-0.299,0.901-0.467
			c0.251-0.169,0.482-0.323,0.693-0.467c0.211-0.143,0.456-0.214,0.732-0.214c0.121,0,0.235,0.028,0.343,0.085
			c0.109,0.056,0.205,0.131,0.292,0.227l0.908,1.089c-0.468,0.467-0.92,0.866-1.361,1.198c-0.44,0.333-0.898,0.609-1.374,0.829
			c-0.475,0.221-0.972,0.382-1.491,0.487c-0.517,0.103-1.089,0.155-1.71,0.155c-0.787,0-1.504-0.135-2.151-0.402
			c-0.648-0.268-1.203-0.645-1.665-1.134c-0.462-0.488-0.821-1.075-1.076-1.762c-0.254-0.688-0.382-1.454-0.382-2.301
			c0-0.709,0.079-1.4,0.233-2.074c0.155-0.674,0.379-1.313,0.676-1.918c0.293-0.605,0.648-1.16,1.068-1.666
			c0.418-0.505,0.896-0.941,1.433-1.309c0.533-0.367,1.12-0.654,1.755-0.862c0.635-0.207,1.311-0.311,2.027-0.311
			c0.701,0,1.32,0.102,1.861,0.305c0.54,0.203,0.991,0.467,1.355,0.79c0.361,0.324,0.636,0.685,0.821,1.083
			C61.368,7.78,61.46,8.178,61.46,8.575 M56.937,7.655c-0.379,0-0.737,0.08-1.074,0.24c-0.338,0.16-0.645,0.384-0.921,0.674
			c-0.277,0.289-0.52,0.639-0.727,1.05c-0.206,0.41-0.375,0.866-0.505,1.367c0.96-0.138,1.734-0.287,2.326-0.447
			s1.051-0.335,1.374-0.525s0.543-0.393,0.655-0.609c0.111-0.216,0.17-0.45,0.17-0.7c0-0.121-0.027-0.244-0.079-0.37
			c-0.053-0.125-0.131-0.237-0.234-0.336c-0.103-0.1-0.238-0.182-0.4-0.247C57.356,7.687,57.161,7.655,56.937,7.655"/>
		<path clip-path="url(#SVGID_4_)" fill="#2BB673" d="M62.615,18.941l1.619-13.375h1.841c0.372,0,0.662,0.091,0.869,0.272
			c0.207,0.182,0.311,0.471,0.311,0.869L67.203,8.56c0.337-0.622,0.693-1.153,1.07-1.594c0.375-0.44,0.766-0.784,1.173-1.03
			c0.404-0.247,0.819-0.389,1.243-0.428s0.851,0.037,1.283,0.227l-0.647,3.357c-0.51-0.216-0.99-0.307-1.44-0.272
			c-0.447,0.034-0.86,0.207-1.236,0.518c-0.375,0.311-0.716,0.765-1.018,1.361c-0.303,0.596-0.566,1.348-0.791,2.255l-0.713,5.988
			H62.615z"/>
		<path clip-path="url(#SVGID_4_)" fill="#2BB673" d="M76.95,18.943c-0.744,0-1.436-0.122-2.074-0.369
			c-0.64-0.246-1.193-0.606-1.66-1.082s-0.832-1.063-1.095-1.763c-0.264-0.699-0.396-1.5-0.396-2.397c0-1.167,0.19-2.249,0.57-3.247
			c0.381-0.998,0.895-1.86,1.543-2.586c0.648-0.725,1.404-1.293,2.268-1.704c0.864-0.41,1.775-0.616,2.734-0.616
			c0.744,0,1.434,0.124,2.068,0.37s1.186,0.609,1.652,1.088c0.467,0.48,0.834,1.07,1.102,1.77c0.268,0.699,0.402,1.499,0.402,2.398
			c0,1.158-0.19,2.233-0.57,3.228c-0.381,0.993-0.897,1.853-1.549,2.578c-0.653,0.727-1.409,1.297-2.269,1.712
			C78.817,18.735,77.909,18.943,76.95,18.943 M77.26,16.261c0.501,0,0.951-0.146,1.349-0.44c0.396-0.294,0.733-0.689,1.011-1.186
			c0.276-0.498,0.49-1.073,0.641-1.731c0.152-0.656,0.228-1.352,0.228-2.087c0-1.036-0.16-1.786-0.479-2.248
			s-0.815-0.693-1.491-0.693c-0.491,0-0.938,0.144-1.341,0.434c-0.401,0.289-0.74,0.68-1.017,1.173
			c-0.277,0.492-0.491,1.069-0.643,1.73s-0.227,1.359-0.227,2.093c0,1.02,0.16,1.768,0.48,2.242
			C76.089,16.022,76.586,16.261,77.26,16.261"/>
		<path clip-path="url(#SVGID_4_)" fill="#333333" d="M90.835,7.183l-0.791-1.695c-0.306-0.656-1.088-0.941-1.744-0.635
			l-0.498,0.232c-0.004,0.002-0.008,0.005-0.013,0.007l0.345,0.738c0.004-0.002,0.008-0.005,0.012-0.007l0.498-0.232
			c0.249-0.116,0.546-0.008,0.662,0.241l0.791,1.696c0.116,0.248,0.008,0.545-0.241,0.661l-0.273,0.127
			c-0.249,0.117-0.545,0.009-0.661-0.24l-0.355-0.76c-0.316,0.064-0.64,0.036-0.933-0.074l0.549,1.178
			c0.306,0.656,1.089,0.941,1.745,0.635L90.2,8.927C90.855,8.622,91.141,7.839,90.835,7.183"/>
		<path clip-path="url(#SVGID_4_)" fill="#333333" d="M86.174,1.007l0.272-0.128c0.249-0.116,0.546-0.008,0.662,0.241l0.791,1.696
			c0.116,0.249,0.008,0.546-0.241,0.661L87.16,3.71c-0.005,0.002-0.009,0.003-0.013,0.005l0.344,0.738
			c0.004-0.002,0.009-0.003,0.014-0.005l0.498-0.232c0.655-0.306,0.94-1.089,0.635-1.745l-0.79-1.695
			c-0.307-0.656-1.089-0.941-1.745-0.635l-0.273,0.128c-0.655,0.305-0.94,1.088-0.635,1.744l0.549,1.178
			c0.105-0.295,0.291-0.561,0.543-0.762l-0.354-0.76C85.816,1.42,85.925,1.123,86.174,1.007"/>
		<path clip-path="url(#SVGID_4_)" fill="#333333" d="M89.179,6.524l-0.344-0.738l-0.52,0.242c-0.249,0.116-0.547,0.008-0.661-0.241
			l-0.791-1.695c-0.116-0.249-0.009-0.546,0.24-0.662l0.589-0.274l-0.346-0.738l-0.588,0.274c-0.656,0.305-0.939,1.088-0.635,1.744
			l0.791,1.696c0.306,0.655,1.088,0.94,1.744,0.634L89.179,6.524z"/>
		<path clip-path="url(#SVGID_4_)" fill="#333333" d="M94.264,11.502l0.791,1.695c0.305,0.656,1.088,0.941,1.744,0.635l0.498-0.232
			c0.004-0.002,0.008-0.005,0.013-0.007l-0.345-0.738c-0.004,0.002-0.008,0.005-0.012,0.007l-0.498,0.232
			c-0.249,0.116-0.546,0.008-0.662-0.241l-0.791-1.696c-0.116-0.248-0.008-0.545,0.241-0.661l0.273-0.127
			c0.249-0.117,0.545-0.009,0.661,0.24l0.355,0.76c0.316-0.064,0.64-0.036,0.933,0.074l-0.549-1.178
			c-0.306-0.656-1.089-0.941-1.745-0.635l-0.273,0.128C94.243,10.063,93.958,10.847,94.264,11.502"/>
		<path clip-path="url(#SVGID_4_)" fill="#333333" d="M98.925,17.679l-0.272,0.128c-0.249,0.116-0.546,0.009-0.662-0.24
			l-0.791-1.696c-0.116-0.249-0.008-0.546,0.241-0.661l0.498-0.233c0.005-0.002,0.009-0.003,0.013-0.005l-0.344-0.737
			c-0.004,0.002-0.009,0.003-0.014,0.005l-0.498,0.231c-0.655,0.307-0.94,1.089-0.635,1.745l0.79,1.695
			c0.307,0.656,1.089,0.94,1.745,0.635l0.273-0.128c0.655-0.305,0.94-1.088,0.635-1.744l-0.549-1.178
			c-0.105,0.295-0.291,0.561-0.543,0.762l0.354,0.76C99.282,17.266,99.174,17.563,98.925,17.679"/>
		<path clip-path="url(#SVGID_4_)" fill="#333333" d="M95.92,12.162l0.344,0.738l0.52-0.242c0.249-0.116,0.547-0.008,0.661,0.241
			l0.791,1.695c0.116,0.249,0.009,0.546-0.24,0.662l-0.589,0.274l0.346,0.737l0.588-0.272c0.656-0.307,0.939-1.089,0.635-1.745
			l-0.791-1.696c-0.306-0.655-1.088-0.94-1.744-0.634L95.92,12.162z"/>
		<path clip-path="url(#SVGID_4_)" fill="#2BB673" d="M92.533,7.415c-0.933,0-1.688,0.756-1.688,1.689
			c0,0.187,0.03,0.366,0.086,0.534h0.505V8.216l1.098,1.098l1.099-1.098v1.421h0.505c0.056-0.168,0.086-0.347,0.086-0.534
			C94.223,8.17,93.467,7.415,92.533,7.415"/>
		<path clip-path="url(#SVGID_4_)" fill="#333333" d="M92.281,9.566l-0.479-0.479v0.894h-0.183h-0.184H91.09
			c0.297,0.487,0.832,0.812,1.443,0.812c0.612,0,1.146-0.325,1.444-0.812h-0.347h-0.327h-0.038V9.087l-0.479,0.479l-0.253,0.252
			L92.281,9.566z"/>
		<path clip-path="url(#SVGID_4_)" fill="#333333" d="M90.2,9.758L89.927,9.63c-0.656-0.305-1.438-0.021-1.745,0.635l-0.549,1.178
			c0.293-0.109,0.616-0.137,0.934-0.074l0.354-0.759c0.115-0.249,0.412-0.357,0.661-0.241l0.274,0.127
			c0.248,0.116,0.356,0.413,0.239,0.662l-0.79,1.695c-0.115,0.249-0.413,0.357-0.662,0.241l-0.498-0.232
			c-0.004-0.002-0.008-0.005-0.012-0.007l-0.345,0.738c0.005,0.003,0.009,0.005,0.013,0.007l0.498,0.232
			c0.656,0.306,1.439,0.021,1.744-0.635l0.791-1.696C91.141,10.846,90.856,10.064,90.2,9.758"/>
		<path clip-path="url(#SVGID_4_)" fill="#333333" d="M85.933,17.018l0.354-0.76c-0.252-0.202-0.438-0.468-0.543-0.763l-0.55,1.178
			c-0.306,0.656-0.021,1.438,0.636,1.744l0.272,0.127c0.656,0.307,1.438,0.021,1.744-0.634l0.791-1.696
			c0.306-0.655,0.021-1.438-0.635-1.743l-0.498-0.232c-0.004-0.002-0.009-0.004-0.014-0.006l-0.345,0.739
			c0.005,0.002,0.009,0.003,0.015,0.005l0.497,0.231c0.249,0.116,0.357,0.413,0.241,0.662l-0.791,1.695
			c-0.116,0.249-0.413,0.356-0.662,0.241l-0.272-0.127C85.925,17.563,85.816,17.267,85.933,17.018"/>
		<path clip-path="url(#SVGID_4_)" fill="#333333" d="M88.659,11.919c-0.656-0.306-1.438-0.021-1.744,0.635l-0.791,1.696
			c-0.306,0.656-0.021,1.438,0.636,1.744l0.588,0.274l0.344-0.738l-0.588-0.275c-0.249-0.115-0.357-0.411-0.241-0.66l0.791-1.695
			c0.116-0.249,0.413-0.358,0.662-0.241l0.519,0.242l0.346-0.739L88.659,11.919z"/>
		<path clip-path="url(#SVGID_4_)" fill="#333333" d="M94.898,8.928l0.273,0.128c0.656,0.305,1.438,0.021,1.745-0.635l0.549-1.178
			c-0.293,0.109-0.616,0.137-0.933,0.074l-0.355,0.759c-0.115,0.249-0.412,0.357-0.661,0.241l-0.273-0.127
			c-0.249-0.116-0.357-0.413-0.24-0.662l0.79-1.695c0.116-0.249,0.413-0.357,0.662-0.241l0.498,0.232
			c0.004,0.002,0.008,0.005,0.012,0.007l0.345-0.739c-0.005-0.002-0.009-0.004-0.013-0.006l-0.498-0.233
			c-0.656-0.305-1.439-0.021-1.744,0.635l-0.791,1.696C93.958,7.839,94.243,8.622,94.898,8.928"/>
		<path clip-path="url(#SVGID_4_)" fill="#333333" d="M99.166,1.668l-0.354,0.76c0.253,0.202,0.438,0.467,0.543,0.762l0.55-1.178
			c0.306-0.656,0.021-1.438-0.636-1.744l-0.272-0.127c-0.656-0.306-1.438-0.021-1.744,0.634l-0.791,1.696
			c-0.306,0.656-0.021,1.438,0.635,1.744l0.498,0.232c0.004,0.002,0.009,0.004,0.014,0.006l0.345-0.739
			c-0.005-0.002-0.009-0.003-0.015-0.005L97.44,3.478c-0.249-0.116-0.357-0.413-0.241-0.662L97.99,1.12
			c0.116-0.249,0.413-0.357,0.662-0.241l0.272,0.127C99.174,1.123,99.282,1.419,99.166,1.668"/>
		<path clip-path="url(#SVGID_4_)" fill="#333333" d="M96.439,6.767c0.656,0.306,1.438,0.021,1.744-0.635l0.791-1.696
			c0.306-0.656,0.021-1.438-0.635-1.744l-0.589-0.274l-0.344,0.738l0.588,0.275c0.249,0.116,0.357,0.412,0.241,0.661l-0.791,1.695
			c-0.116,0.249-0.413,0.358-0.662,0.241l-0.519-0.242l-0.346,0.739L96.439,6.767z"/>
		<defs>
			<filter id="Adobe_OpacityMaskFilter" filterUnits="userSpaceOnUse" x="0" y="18.934" width="100.027" height="18.927">
				<feColorMatrix  type="matrix" values="1 0 0 0 0  0 1 0 0 0  0 0 1 0 0  0 0 0 1 0"/>
			</filter>
		</defs>
		<mask maskUnits="userSpaceOnUse" x="0" y="18.934" width="100.027" height="18.927" id="SVGID_5_">
			<g filter="url(#Adobe_OpacityMaskFilter)">
				<g>
					<defs>
						<rect id="SVGID_6_" y="18.935" width="100.027" height="18.926"/>
					</defs>
					<clipPath id="SVGID_7_" clip-path="url(#SVGID_4_)">
						<use xlink:href="#SVGID_6_"  overflow="visible"/>
					</clipPath>
					<rect x="0" y="18.935" clip-path="url(#SVGID_7_)" width="100.21" height="19.107"/>
					<g enable-background="new    ">
						<g>
							<defs>
								<rect id="SVGID_8_" y="18.935" width="100.21" height="19.108"/>
							</defs>
							<clipPath id="SVGID_9_" clip-path="url(#SVGID_7_)">
								<use xlink:href="#SVGID_8_"  overflow="visible"/>
							</clipPath>
							
								<linearGradient id="SVGID_10_" gradientUnits="userSpaceOnUse" x1="-0.002" y1="63.5625" x2="0.998" y2="63.5625" gradientTransform="matrix(0 26.5324 26.5324 0 -1636.4603 18.981)">
								<stop  offset="0" style="stop-color:#FFFFFF"/>
								<stop  offset="0.0074" style="stop-color:#F4F4F5"/>
								<stop  offset="0.0477" style="stop-color:#CECFD1"/>
								<stop  offset="0.0931" style="stop-color:#AAACAF"/>
								<stop  offset="0.1419" style="stop-color:#8D8F92"/>
								<stop  offset="0.195" style="stop-color:#757679"/>
								<stop  offset="0.2537" style="stop-color:#5F6063"/>
								<stop  offset="0.32" style="stop-color:#4C4C4E"/>
								<stop  offset="0.3974" style="stop-color:#38383A"/>
								<stop  offset="0.4931" style="stop-color:#1E1E1F"/>
								<stop  offset="0.6274" style="stop-color:#070708"/>
								<stop  offset="1" style="stop-color:#000000"/>
							</linearGradient>
							<rect x="0.014" y="18.936" clip-path="url(#SVGID_9_)" fill="url(#SVGID_10_)" width="100" height="26.531"/>
						</g>
					</g>
				</g>
			</g>
		</mask>
		<g opacity="0.35" clip-path="url(#SVGID_4_)" mask="url(#SVGID_5_)">
			<g>
				<defs>
					<rect id="SVGID_11_" y="18.935" width="100.027" height="18.926"/>
				</defs>
				<clipPath id="SVGID_12_">
					<use xlink:href="#SVGID_11_"  overflow="visible"/>
				</clipPath>
				<path clip-path="url(#SVGID_12_)" fill="#2BB673" d="M9.967,26.791L6.338,37.16c-0.086,0.12-0.166,0.22-0.24,0.298
					c-0.073,0.077-0.153,0.138-0.24,0.181c-0.086,0.043-0.183,0.072-0.291,0.086c-0.108,0.012-0.244,0.019-0.408,0.019H2.32
					L0,18.937h3.318l1.387,11.717c0.026,0.225,0.045,0.471,0.058,0.739c0.013,0.268,0.024,0.539,0.033,0.816l3.629-10.291
					c0.095-0.26,0.25-0.456,0.466-0.591c0.216-0.133,0.467-0.2,0.752-0.2h0.519c0.293,0,0.561,0.067,0.803,0.2
					c0.242,0.135,0.445,0.331,0.609,0.591l6.092,10.252c-0.069-0.286-0.128-0.563-0.175-0.836c-0.048-0.271-0.089-0.521-0.123-0.746
					l-1.413-11.651h3.292l2.32,18.807h-2.864c-0.164,0-0.303-0.007-0.415-0.019c-0.112-0.014-0.218-0.043-0.317-0.086
					c-0.1-0.043-0.195-0.104-0.286-0.181c-0.091-0.078-0.192-0.178-0.304-0.298l-6.183-10.369c-0.147-0.251-0.287-0.501-0.421-0.752
					c-0.134-0.251-0.261-0.505-0.382-0.764C10.274,25.793,10.131,26.298,9.967,26.791"/>
				<path clip-path="url(#SVGID_12_)" fill="#2BB673" d="M30.167,19.566c0.86,0.415,1.616,0.984,2.269,1.711
					c0.652,0.726,1.168,1.585,1.549,2.579c0.38,0.994,0.57,2.068,0.57,3.227c0,0.899-0.134,1.699-0.402,2.398
					c-0.268,0.7-0.635,1.29-1.102,1.77c-0.466,0.479-1.017,0.842-1.652,1.088c-0.635,0.246-1.325,0.37-2.067,0.37
					c-0.959,0-1.871-0.206-2.735-0.616c-0.865-0.41-1.62-0.979-2.268-1.703c-0.648-0.727-1.163-1.589-1.543-2.586
					c-0.38-0.998-0.57-2.08-0.57-3.247c0-0.898,0.132-1.698,0.395-2.398c0.264-0.7,0.629-1.287,1.096-1.762
					c0.466-0.477,1.019-0.836,1.658-1.082c0.64-0.247,1.331-0.37,2.074-0.37C28.397,18.944,29.308,19.152,30.167,19.566
					 M26.26,22.34c-0.32,0.476-0.48,1.224-0.48,2.242c0,0.734,0.076,1.433,0.227,2.093c0.151,0.661,0.365,1.238,0.642,1.73
					c0.276,0.493,0.615,0.884,1.017,1.173c0.402,0.29,0.849,0.435,1.341,0.435c0.675,0,1.171-0.23,1.491-0.693
					c0.32-0.462,0.48-1.212,0.48-2.248c0-0.735-0.076-1.431-0.227-2.087c-0.151-0.657-0.365-1.233-0.642-1.731
					c-0.277-0.496-0.613-0.892-1.011-1.185c-0.397-0.294-0.847-0.441-1.348-0.441C27.076,21.627,26.58,21.865,26.26,22.34"/>
				<path clip-path="url(#SVGID_12_)" fill="#2BB673" d="M39.337,18.937l0.738,6.623c0.165,0.613,0.381,1.171,0.649,1.672
					c0.267,0.501,0.561,0.929,0.881,1.283c0.319,0.354,0.652,0.629,0.998,0.823c0.345,0.194,0.683,0.292,1.011,0.292
					c0.458,0,0.777-0.167,0.959-0.499c0.182-0.333,0.22-0.901,0.116-1.705l-0.997-8.489h3.564l1.011,8.489
					c0.104,0.813,0.095,1.534-0.026,2.165c-0.121,0.631-0.33,1.162-0.629,1.594c-0.298,0.432-0.672,0.76-1.121,0.985
					c-0.449,0.225-0.951,0.337-1.503,0.337c-0.856,0-1.678-0.226-2.469-0.674c-0.791-0.449-1.519-1.141-2.184-2.074l0.039,1.413
					c0,0.397-0.104,0.687-0.312,0.868c-0.207,0.182-0.496,0.272-0.868,0.272h-1.827L35.76,18.937H39.337z"/>
				<path clip-path="url(#SVGID_12_)" fill="#2BB673" d="M61.183,30.495c-0.187,0.397-0.46,0.759-0.823,1.083
					c-0.364,0.324-0.813,0.587-1.354,0.79c-0.54,0.204-1.159,0.305-1.861,0.305c-0.716,0-1.394-0.104-2.027-0.311
					c-0.635-0.207-1.221-0.495-1.756-0.862c-0.536-0.367-1.014-0.803-1.432-1.309c-0.419-0.506-0.776-1.062-1.069-1.665
					c-0.295-0.605-0.519-1.245-0.675-1.92c-0.155-0.673-0.233-1.364-0.233-2.073c0-0.848,0.127-1.613,0.382-2.3
					c0.256-0.688,0.613-1.275,1.075-1.764s1.019-0.866,1.666-1.134s1.364-0.402,2.152-0.402c0.621,0,1.192,0.053,1.709,0.156
					c0.52,0.104,1.016,0.266,1.492,0.486c0.475,0.221,0.933,0.497,1.374,0.829c0.44,0.333,0.893,0.731,1.359,1.198l-0.907,1.09
					c-0.086,0.095-0.183,0.17-0.291,0.227c-0.108,0.056-0.224,0.084-0.344,0.084c-0.275,0-0.521-0.071-0.731-0.214
					c-0.211-0.143-0.443-0.298-0.694-0.466c-0.251-0.169-0.55-0.324-0.9-0.468c-0.35-0.143-0.802-0.214-1.354-0.214
					c-1.669,0-2.503,0.989-2.503,2.969v0.025c1.581,0.156,2.89,0.374,3.927,0.655c1.037,0.28,1.859,0.619,2.463,1.017
					c0.605,0.397,1.029,0.848,1.271,1.349c0.242,0.501,0.363,1.05,0.363,1.646C61.461,29.701,61.368,30.098,61.183,30.495
					 M57.521,30.126c0.163-0.065,0.297-0.147,0.401-0.246c0.103-0.099,0.182-0.212,0.232-0.337c0.052-0.126,0.079-0.249,0.079-0.37
					c0-0.25-0.058-0.483-0.169-0.7c-0.113-0.216-0.331-0.419-0.655-0.608c-0.323-0.19-0.781-0.365-1.374-0.525
					c-0.593-0.159-1.366-0.308-2.327-0.447c0.131,0.501,0.3,0.957,0.507,1.368c0.207,0.41,0.447,0.76,0.726,1.05
					c0.276,0.289,0.583,0.515,0.92,0.675c0.338,0.158,0.696,0.238,1.075,0.238C57.161,30.223,57.356,30.191,57.521,30.126"/>
				<path clip-path="url(#SVGID_12_)" fill="#2BB673" d="M66.127,18.937l0.713,5.988c0.225,0.906,0.488,1.659,0.791,2.255
					s0.643,1.05,1.018,1.36c0.376,0.312,0.789,0.484,1.236,0.519c0.45,0.035,0.931-0.056,1.44-0.272l0.648,3.357
					c-0.434,0.19-0.86,0.266-1.284,0.227c-0.423-0.039-0.838-0.181-1.243-0.428c-0.407-0.246-0.798-0.59-1.173-1.03
					c-0.377-0.44-0.733-0.972-1.07-1.594l0.052,1.854c0,0.397-0.104,0.687-0.312,0.868c-0.207,0.182-0.496,0.272-0.868,0.272h-1.841
					l-1.619-13.376H66.127z"/>
				<path clip-path="url(#SVGID_12_)" fill="#2BB673" d="M79.678,19.557c0.859,0.415,1.616,0.984,2.269,1.711
					c0.651,0.726,1.168,1.585,1.549,2.579c0.38,0.993,0.57,2.068,0.57,3.227c0,0.899-0.135,1.699-0.402,2.398
					c-0.269,0.699-0.635,1.29-1.103,1.77c-0.466,0.479-1.017,0.842-1.651,1.088s-1.324,0.37-2.068,0.37
					c-0.959,0-1.87-0.206-2.734-0.616c-0.863-0.411-1.619-0.979-2.268-1.704s-1.162-1.588-1.543-2.586
					c-0.38-0.998-0.57-2.08-0.57-3.247c0-0.897,0.132-1.697,0.396-2.397c0.263-0.7,0.628-1.287,1.095-1.762
					c0.467-0.477,1.021-0.836,1.66-1.082c0.639-0.247,1.33-0.37,2.074-0.37C77.909,18.935,78.817,19.143,79.678,19.557 M75.77,22.33
					c-0.319,0.476-0.479,1.224-0.479,2.242c0,0.734,0.076,1.432,0.227,2.093c0.151,0.661,0.365,1.238,0.643,1.73
					c0.275,0.493,0.615,0.884,1.017,1.173c0.402,0.29,0.85,0.434,1.341,0.434c0.676,0,1.171-0.229,1.491-0.692
					c0.32-0.462,0.48-1.212,0.48-2.248c0-0.735-0.076-1.432-0.229-2.087c-0.15-0.657-0.365-1.233-0.641-1.731
					c-0.277-0.496-0.614-0.892-1.011-1.185c-0.397-0.294-0.848-0.441-1.349-0.441C76.586,21.617,76.089,21.855,75.77,22.33"/>
				<path clip-path="url(#SVGID_12_)" fill="#333333" d="M90.835,30.695l-0.791,1.694c-0.306,0.656-1.088,0.941-1.744,0.636
					l-0.498-0.232c-0.004-0.002-0.008-0.005-0.013-0.007l0.345-0.738c0.004,0.002,0.008,0.005,0.012,0.007l0.498,0.232
					c0.249,0.116,0.546,0.008,0.662-0.241l0.791-1.696c0.116-0.248,0.008-0.545-0.241-0.66l-0.273-0.127
					c-0.249-0.117-0.545-0.01-0.661,0.239l-0.355,0.761c-0.316-0.064-0.64-0.036-0.933,0.073l0.549-1.178
					c0.306-0.656,1.089-0.941,1.745-0.635l0.273,0.128C90.855,29.256,91.141,30.039,90.835,30.695"/>
				<path clip-path="url(#SVGID_12_)" fill="#333333" d="M86.174,36.871l0.272,0.128c0.249,0.116,0.546,0.009,0.662-0.24
					l0.791-1.696c0.116-0.249,0.008-0.546-0.241-0.661l-0.498-0.233c-0.005-0.002-0.009-0.003-0.013-0.005l0.344-0.737
					c0.004,0.002,0.009,0.003,0.014,0.005l0.498,0.231c0.655,0.307,0.94,1.089,0.635,1.745l-0.79,1.695
					c-0.307,0.656-1.089,0.94-1.745,0.635l-0.273-0.128c-0.655-0.305-0.94-1.088-0.635-1.744l0.549-1.178
					c0.105,0.295,0.291,0.561,0.543,0.762l-0.354,0.76C85.816,36.458,85.925,36.756,86.174,36.871"/>
				<path clip-path="url(#SVGID_12_)" fill="#333333" d="M89.179,31.354l-0.344,0.737l-0.52-0.241
					c-0.249-0.116-0.547-0.009-0.661,0.24l-0.791,1.695c-0.116,0.249-0.009,0.546,0.24,0.662l0.589,0.274l-0.346,0.737l-0.588-0.272
					c-0.656-0.307-0.939-1.089-0.635-1.745l0.791-1.696c0.306-0.655,1.088-0.939,1.744-0.634L89.179,31.354z"/>
				<path clip-path="url(#SVGID_12_)" fill="#333333" d="M94.264,26.376l0.791-1.695c0.305-0.656,1.088-0.941,1.744-0.635
					l0.498,0.231c0.004,0.002,0.008,0.005,0.013,0.007l-0.345,0.738c-0.004-0.002-0.008-0.005-0.012-0.007l-0.498-0.232
					c-0.249-0.115-0.546-0.008-0.662,0.241l-0.791,1.696c-0.116,0.248-0.008,0.545,0.241,0.661l0.273,0.127
					c0.249,0.117,0.545,0.009,0.661-0.24l0.355-0.76c0.316,0.063,0.64,0.036,0.933-0.074l-0.549,1.178
					c-0.306,0.656-1.089,0.941-1.745,0.636l-0.273-0.129C94.243,27.814,93.958,27.031,94.264,26.376"/>
				<path clip-path="url(#SVGID_12_)" fill="#333333" d="M98.925,20.199l-0.272-0.128c-0.249-0.116-0.546-0.008-0.662,0.241
					l-0.791,1.695c-0.116,0.249-0.008,0.547,0.241,0.661l0.498,0.233c0.005,0.002,0.009,0.003,0.013,0.005l-0.344,0.738
					c-0.004-0.002-0.009-0.003-0.014-0.005l-0.498-0.232c-0.655-0.306-0.94-1.089-0.635-1.745l0.79-1.695
					c0.307-0.655,1.089-0.94,1.745-0.635l0.273,0.128c0.655,0.306,0.94,1.088,0.635,1.744l-0.549,1.178
					c-0.105-0.295-0.291-0.561-0.543-0.762l0.354-0.76C99.282,20.612,99.174,20.315,98.925,20.199"/>
				<path clip-path="url(#SVGID_12_)" fill="#333333" d="M95.92,25.717l0.344-0.738l0.52,0.242c0.249,0.116,0.547,0.008,0.661-0.241
					l0.791-1.695c0.116-0.249,0.009-0.546-0.24-0.662l-0.589-0.273l0.346-0.738l0.588,0.274c0.656,0.305,0.939,1.088,0.635,1.744
					l-0.791,1.695c-0.306,0.655-1.088,0.94-1.744,0.634L95.92,25.717z"/>
				<path clip-path="url(#SVGID_12_)" fill="#2BB673" d="M92.533,30.464c-0.933,0-1.688-0.756-1.688-1.689
					c0-0.187,0.03-0.365,0.086-0.533h0.505v1.421l1.098-1.099l1.099,1.099v-1.421h0.505c0.056,0.168,0.086,0.347,0.086,0.533
					C94.223,29.708,93.467,30.464,92.533,30.464"/>
				<path clip-path="url(#SVGID_12_)" fill="#333333" d="M92.281,28.312l-0.479,0.479v-0.895h-0.183h-0.184H91.09
					c0.297-0.486,0.832-0.812,1.443-0.812c0.612,0,1.146,0.325,1.444,0.812h-0.347h-0.327h-0.038v0.895l-0.479-0.479l-0.253-0.252
					L92.281,28.312z"/>
				<path clip-path="url(#SVGID_12_)" fill="#333333" d="M90.2,28.12l-0.273,0.128c-0.656,0.305-1.438,0.021-1.745-0.635
					l-0.549-1.179c0.293,0.109,0.616,0.138,0.934,0.074l0.354,0.759c0.115,0.249,0.412,0.357,0.661,0.241l0.274-0.127
					c0.248-0.116,0.356-0.413,0.239-0.662l-0.79-1.694c-0.115-0.249-0.413-0.357-0.662-0.241l-0.498,0.231
					c-0.004,0.002-0.008,0.006-0.012,0.008l-0.345-0.739c0.005-0.002,0.009-0.004,0.013-0.006l0.498-0.233
					c0.656-0.305,1.439-0.021,1.744,0.635l0.791,1.696C91.141,27.032,90.856,27.814,90.2,28.12"/>
				<path clip-path="url(#SVGID_12_)" fill="#333333" d="M85.933,20.861l0.354,0.76c-0.252,0.202-0.438,0.467-0.543,0.762
					l-0.55-1.178c-0.306-0.656-0.021-1.438,0.636-1.744l0.272-0.127c0.656-0.306,1.438-0.021,1.744,0.634l0.791,1.696
					c0.306,0.656,0.021,1.438-0.635,1.744l-0.498,0.231c-0.004,0.002-0.009,0.004-0.014,0.006l-0.345-0.738
					c0.005-0.002,0.009-0.003,0.015-0.005l0.497-0.232c0.249-0.116,0.357-0.413,0.241-0.662l-0.791-1.695
					c-0.116-0.249-0.413-0.356-0.662-0.24l-0.272,0.127C85.925,20.314,85.816,20.612,85.933,20.861"/>
				<path clip-path="url(#SVGID_12_)" fill="#333333" d="M88.659,25.959c-0.656,0.306-1.438,0.021-1.744-0.635l-0.791-1.696
					c-0.306-0.656-0.021-1.438,0.636-1.744l0.588-0.273l0.344,0.737l-0.588,0.275c-0.249,0.116-0.357,0.412-0.241,0.661l0.791,1.694
					c0.116,0.249,0.413,0.357,0.662,0.241l0.519-0.242l0.346,0.739L88.659,25.959z"/>
				<path clip-path="url(#SVGID_12_)" fill="#333333" d="M94.898,28.951l0.273-0.128c0.656-0.306,1.438-0.021,1.745,0.635
					l0.549,1.178c-0.293-0.109-0.616-0.137-0.933-0.074l-0.355-0.759c-0.115-0.249-0.412-0.356-0.661-0.241l-0.273,0.127
					c-0.249,0.116-0.357,0.413-0.24,0.662l0.79,1.695c0.116,0.249,0.413,0.356,0.662,0.241l0.498-0.232
					c0.004-0.002,0.008-0.005,0.012-0.007l0.345,0.739c-0.005,0.002-0.009,0.004-0.013,0.006l-0.498,0.232
					c-0.656,0.306-1.439,0.021-1.744-0.635l-0.791-1.695C93.958,30.039,94.243,29.257,94.898,28.951"/>
				<path clip-path="url(#SVGID_12_)" fill="#333333" d="M99.166,36.21l-0.354-0.76c0.253-0.202,0.438-0.467,0.543-0.763l0.55,1.179
					c0.306,0.655,0.021,1.438-0.636,1.744l-0.272,0.127c-0.656,0.306-1.438,0.021-1.744-0.635l-0.791-1.695
					c-0.306-0.656-0.021-1.438,0.635-1.744l0.498-0.232c0.004-0.002,0.009-0.004,0.014-0.006l0.345,0.739
					c-0.005,0.002-0.009,0.003-0.015,0.005l-0.497,0.232c-0.249,0.115-0.357,0.412-0.241,0.661l0.791,1.695
					c0.116,0.249,0.413,0.357,0.662,0.241l0.272-0.127C99.174,36.756,99.282,36.459,99.166,36.21"/>
				<path clip-path="url(#SVGID_12_)" fill="#333333" d="M96.439,31.112c0.656-0.307,1.438-0.021,1.744,0.635l0.791,1.695
					c0.306,0.656,0.021,1.438-0.635,1.744l-0.589,0.274l-0.344-0.738l0.588-0.274c0.249-0.116,0.357-0.412,0.241-0.661l-0.791-1.695
					c-0.116-0.249-0.413-0.358-0.662-0.241l-0.519,0.242l-0.346-0.739L96.439,31.112z"/>
			</g>
		</g>
	</g>
</g>
</svg>
