<?xml version="1.0" encoding="utf-8"?>
<!-- Generator: Adobe Illustrator 16.0.0, SVG Export Plug-In . SVG Version: 6.00 Build 0)  -->
<!DOCTYPE svg PUBLIC "-//W3C//DTD SVG 1.1//EN" "http://www.w3.org/Graphics/SVG/1.1/DTD/svg11.dtd">
<svg version="1.1" id="Layer_1" xmlns="http://www.w3.org/2000/svg" xmlns:xlink="http://www.w3.org/1999/xlink" x="0px" y="0px"
	 width="14.93px" height="18.665px" viewBox="0 0 14.93 18.665" enable-background="new 0 0 14.93 18.665" xml:space="preserve">
<g>
	<defs>
		<rect id="SVGID_1_" x="-85.07" y="-36.422" width="100" height="100"/>
	</defs>
	<clipPath id="SVGID_2_">
		<use xlink:href="#SVGID_1_"  overflow="visible"/>
	</clipPath>
	<g clip-path="url(#SVGID_2_)">
		<defs>
			<rect id="SVGID_3_" x="-85.07" y="-36.422" width="100" height="100"/>
		</defs>
		<clipPath id="SVGID_4_">
			<use xlink:href="#SVGID_3_"  overflow="visible"/>
		</clipPath>
		<path clip-path="url(#SVGID_4_)" fill="#333333" d="M5.751,7.183L4.96,5.488C4.654,4.832,3.872,4.547,3.216,4.853L2.718,5.085
			C2.714,5.087,2.71,5.09,2.705,5.092L3.05,5.83c0.004-0.002,0.008-0.005,0.012-0.007L3.56,5.591
			c0.249-0.116,0.546-0.008,0.662,0.241l0.791,1.696c0.116,0.248,0.008,0.545-0.241,0.661L4.498,8.316
			c-0.249,0.117-0.545,0.009-0.661-0.24l-0.355-0.76C3.165,7.38,2.842,7.352,2.549,7.242L3.098,8.42
			c0.306,0.656,1.089,0.941,1.745,0.635l0.273-0.128C5.771,8.622,6.057,7.839,5.751,7.183"/>
		<path clip-path="url(#SVGID_4_)" fill="#333333" d="M1.09,1.007l0.272-0.128C1.611,0.763,1.908,0.871,2.024,1.12l0.791,1.696
			c0.116,0.249,0.008,0.546-0.241,0.661L2.076,3.71C2.071,3.712,2.067,3.713,2.063,3.715l0.344,0.738
			C2.411,4.451,2.416,4.45,2.421,4.448l0.498-0.232c0.655-0.306,0.94-1.089,0.635-1.745l-0.79-1.695
			C2.457,0.12,1.675-0.165,1.019,0.141L0.745,0.269C0.09,0.574-0.195,1.357,0.11,2.013l0.549,1.178
			C0.765,2.896,0.95,2.63,1.202,2.429l-0.354-0.76C0.732,1.42,0.841,1.123,1.09,1.007"/>
		<path clip-path="url(#SVGID_4_)" fill="#333333" d="M4.095,6.524L3.751,5.786l-0.52,0.242C2.982,6.144,2.685,6.036,2.57,5.787
			L1.779,4.092C1.663,3.843,1.771,3.546,2.02,3.43l0.589-0.274L2.263,2.418L1.675,2.692C1.019,2.997,0.735,3.78,1.04,4.436
			l0.791,1.696c0.306,0.655,1.088,0.94,1.744,0.634L4.095,6.524z"/>
		<path clip-path="url(#SVGID_4_)" fill="#333333" d="M9.18,11.502l0.791,1.695c0.305,0.656,1.088,0.941,1.744,0.635l0.498-0.232
			c0.004-0.002,0.008-0.005,0.013-0.007l-0.345-0.738c-0.004,0.002-0.008,0.005-0.012,0.007l-0.498,0.232
			c-0.249,0.116-0.546,0.008-0.662-0.241l-0.791-1.696c-0.116-0.248-0.008-0.545,0.241-0.661l0.273-0.127
			c0.249-0.117,0.545-0.009,0.661,0.24l0.355,0.76c0.316-0.064,0.64-0.036,0.933,0.074l-0.549-1.178
			c-0.306-0.656-1.089-0.941-1.745-0.635L9.814,9.759C9.159,10.063,8.874,10.847,9.18,11.502"/>
		<path clip-path="url(#SVGID_4_)" fill="#333333" d="M13.841,17.679l-0.272,0.128c-0.249,0.116-0.546,0.009-0.662-0.24
			l-0.791-1.696c-0.116-0.249-0.008-0.546,0.241-0.661l0.498-0.233c0.005-0.002,0.009-0.003,0.013-0.005l-0.344-0.737
			c-0.004,0.002-0.009,0.003-0.014,0.005l-0.498,0.231c-0.655,0.307-0.94,1.089-0.635,1.745l0.79,1.695
			c0.307,0.656,1.089,0.94,1.745,0.635l0.273-0.128c0.655-0.305,0.94-1.088,0.635-1.744l-0.549-1.178
			c-0.105,0.295-0.291,0.561-0.543,0.762l0.354,0.76C14.198,17.266,14.09,17.563,13.841,17.679"/>
		<path clip-path="url(#SVGID_4_)" fill="#333333" d="M10.836,12.162L11.18,12.9l0.52-0.242c0.249-0.116,0.547-0.008,0.661,0.241
			l0.791,1.695c0.116,0.249,0.009,0.546-0.24,0.662l-0.589,0.274l0.346,0.737l0.588-0.272c0.656-0.307,0.939-1.089,0.635-1.745
			L13.1,12.554c-0.306-0.655-1.088-0.94-1.744-0.634L10.836,12.162z"/>
		<path clip-path="url(#SVGID_4_)" fill="#2BB673" d="M7.449,7.415c-0.933,0-1.688,0.756-1.688,1.689
			c0,0.187,0.03,0.366,0.086,0.534h0.505V8.216l1.098,1.098l1.099-1.098v1.421h0.505C9.108,9.47,9.139,9.291,9.139,9.104
			C9.139,8.17,8.383,7.415,7.449,7.415"/>
		<path clip-path="url(#SVGID_4_)" fill="#333333" d="M7.197,9.566L6.718,9.087v0.894H6.535H6.352H6.006
			c0.297,0.487,0.832,0.812,1.443,0.812c0.612,0,1.146-0.325,1.444-0.812H8.547H8.22H8.182V9.087L7.702,9.566L7.449,9.819
			L7.197,9.566z"/>
		<path clip-path="url(#SVGID_4_)" fill="#333333" d="M5.116,9.758L4.843,9.63c-0.656-0.305-1.438-0.021-1.745,0.635l-0.549,1.178
			c0.293-0.109,0.616-0.137,0.934-0.074l0.354-0.759c0.115-0.249,0.412-0.357,0.661-0.241l0.274,0.127
			c0.248,0.116,0.356,0.413,0.239,0.662l-0.79,1.695c-0.115,0.249-0.413,0.357-0.662,0.241l-0.498-0.232
			c-0.004-0.002-0.008-0.005-0.012-0.007l-0.345,0.738c0.005,0.003,0.009,0.005,0.013,0.007l0.498,0.232
			c0.656,0.306,1.439,0.021,1.744-0.635l0.791-1.696C6.057,10.846,5.772,10.064,5.116,9.758"/>
		<path clip-path="url(#SVGID_4_)" fill="#333333" d="M0.849,17.018l0.354-0.76c-0.252-0.202-0.438-0.468-0.543-0.763l-0.55,1.178
			c-0.306,0.656-0.021,1.438,0.636,1.744l0.272,0.127c0.656,0.307,1.438,0.021,1.744-0.634l0.791-1.696
			c0.306-0.655,0.021-1.438-0.635-1.743l-0.498-0.232c-0.004-0.002-0.009-0.004-0.014-0.006l-0.345,0.739
			c0.005,0.002,0.009,0.003,0.015,0.005l0.497,0.231c0.249,0.116,0.357,0.413,0.241,0.662l-0.791,1.695
			c-0.116,0.249-0.413,0.356-0.662,0.241L1.09,17.68C0.841,17.563,0.732,17.267,0.849,17.018"/>
		<path clip-path="url(#SVGID_4_)" fill="#333333" d="M3.575,11.919c-0.656-0.306-1.438-0.021-1.744,0.635L1.04,14.25
			c-0.306,0.656-0.021,1.438,0.636,1.744l0.588,0.274l0.344-0.738L2.02,15.255c-0.249-0.115-0.357-0.411-0.241-0.66l0.791-1.695
			c0.116-0.249,0.413-0.358,0.662-0.241L3.75,12.9l0.346-0.739L3.575,11.919z"/>
		<path clip-path="url(#SVGID_4_)" fill="#333333" d="M9.814,8.928l0.273,0.128c0.656,0.305,1.438,0.021,1.745-0.635l0.549-1.178
			c-0.293,0.109-0.616,0.137-0.933,0.074l-0.355,0.759c-0.115,0.249-0.412,0.357-0.661,0.241l-0.273-0.127
			C9.91,8.074,9.802,7.776,9.919,7.527l0.79-1.695c0.116-0.249,0.413-0.357,0.662-0.241l0.498,0.232
			c0.004,0.002,0.008,0.005,0.012,0.007l0.345-0.739c-0.005-0.002-0.009-0.004-0.013-0.006l-0.498-0.233
			c-0.656-0.305-1.439-0.021-1.744,0.635L9.18,7.184C8.874,7.839,9.159,8.622,9.814,8.928"/>
		<path clip-path="url(#SVGID_4_)" fill="#333333" d="M14.082,1.668l-0.354,0.76c0.253,0.202,0.438,0.467,0.543,0.762l0.55-1.178
			c0.306-0.656,0.021-1.438-0.636-1.744l-0.272-0.127c-0.656-0.306-1.438-0.021-1.744,0.634l-0.791,1.696
			c-0.306,0.656-0.021,1.438,0.635,1.744l0.498,0.232c0.004,0.002,0.009,0.004,0.014,0.006l0.345-0.739
			c-0.005-0.002-0.009-0.003-0.015-0.005l-0.497-0.232c-0.249-0.116-0.357-0.413-0.241-0.662l0.791-1.695
			c0.116-0.249,0.413-0.357,0.662-0.241l0.272,0.127C14.09,1.123,14.198,1.419,14.082,1.668"/>
		<path clip-path="url(#SVGID_4_)" fill="#333333" d="M11.355,6.767c0.656,0.306,1.438,0.021,1.744-0.635l0.791-1.696
			c0.306-0.656,0.021-1.438-0.635-1.744l-0.589-0.274l-0.344,0.738l0.588,0.275c0.249,0.116,0.357,0.412,0.241,0.661l-0.791,1.695
			c-0.116,0.249-0.413,0.358-0.662,0.241l-0.519-0.242l-0.346,0.739L11.355,6.767z"/>
	</g>
</g>
</svg>
